<?xml version="1.0" encoding="UTF-8"?>
<svg xmlns="http://www.w3.org/2000/svg" viewBox="0 0 1408 768" width="1408" height="768">
  <path d="M0.24 0.24C469.41 0.24 938.59 0.24 1407.76 0.24C1407.76 256.11 1407.76 511.98 1407.76 767.85C938.59 767.85 469.41 767.85 0.24 767.85C0.24 511.98 0.24 256.11 0.24 0.24ZM451.89 491.57C450.94 491.9 450 492.24 449.05 492.57C447.48 492.82 445.91 493.07 444.34 493.32C441.13 493.75 437.91 494.19 434.7 494.63C432.85 494.89 430.99 495.15 429.14 495.41C409.52 497.73 389.9 500.05 370.28 502.38C367.43 502.67 364.58 502.97 361.73 503.27C361.1 503.3 360.47 503.33 359.83 503.36C356.67 503.67 353.5 503.97 350.34 504.28C350.02 504.29 349.71 504.3 349.39 504.31C346.54 504.61 343.69 504.91 340.84 505.21C329.77 506.16 318.69 507.11 307.61 508.06C304.79 508.21 301.97 508.36 299.15 508.51C298.86 508.56 298.57 508.61 298.28 508.66C294.85 508.73 293.82 511.65 294.26 514.59C294.79 518.38 297.45 521.79 299.45 525.11C303.48 531.82 307.66 540.78 314.29 545.21C315.87 546.44 317.45 547.67 319.03 548.9C324.64 553.45 333.06 553.7 339.89 552.56C344.01 552.56 348.12 552.57 352.24 552.57C371.23 552.57 390.21 552.57 409.2 552.57C411.42 552.56 413.63 552.56 415.85 552.56C417.75 552.56 419.65 552.56 421.55 552.56C426.29 552.56 431.04 552.56 435.79 552.56C436.42 552.56 437.05 552.56 437.69 552.57C439.58 552.56 441.48 552.56 443.38 552.56C446.86 552.56 450.34 552.56 453.83 552.56C457.31 552.56 460.79 552.57 464.27 552.57C468.7 552.57 473.13 552.57 477.56 552.57C481.36 552.56 485.16 552.56 488.95 552.56C490.54 552.56 492.12 552.56 493.7 552.56C498.77 552.56 503.83 552.56 508.89 552.55C509.21 552.55 509.53 552.55 509.84 552.55C513.32 552.55 516.8 552.56 520.29 552.56C523.77 552.56 527.25 552.56 530.73 552.55C532.94 552.45 535.16 552.34 537.38 552.23C540.91 551.44 544.44 550.65 547.98 549.87C549.46 549.54 550.95 549.21 552.44 548.89C561.46 547.72 582.87 536.44 588.12 528.95C589.62 527.7 591.12 526.44 592.63 525.18C594.88 522.92 597.13 520.66 599.38 518.4C600.84 516.81 602.3 515.23 603.77 513.64C615.1 503.93 624.69 485.2 632.28 472.28C635.15 467.39 641.37 460.18 636.59 455.32C632.67 455.27 629.03 456.59 625.2 457.52C614.62 460.11 604.2 463.33 593.6 465.79C576.54 469.75 559.29 473.48 542.12 476.84C532.74 478.68 522.76 479.48 513.64 482.41C512.06 482.7 510.48 483 508.89 483.3C508.58 483.33 508.26 483.35 507.94 483.38C506.36 483.68 504.78 483.98 503.2 484.28C490.52 486.1 477.84 487.92 465.16 489.74C465.1 489.48 465.05 489.22 464.99 488.95C465 485.16 465 481.36 465.01 477.56C466.39 476.12 467.78 474.67 469.17 473.22C470.78 472.15 472.4 471.08 474.01 470C478.36 467.42 482.71 464.85 487.06 462.27C494.33 458.77 501.61 455.27 508.89 451.78C510.43 451.17 511.97 450.56 513.51 449.95C514.4 449.7 515.3 449.45 516.19 449.19C517.24 448.79 518.29 448.39 519.34 447.99C520.18 447.76 521.03 447.52 521.88 447.29C522.93 446.91 523.98 446.52 525.03 446.14C526.3 445.81 527.56 445.48 528.83 445.16C529.78 444.9 530.73 444.65 531.68 444.39C533.26 444.04 534.84 443.7 536.43 443.35C537.69 443.09 538.96 442.84 540.22 442.58C547.96 442.49 555.64 441.08 563.48 441.4C573.24 441.8 582.19 444.19 591.49 446.85C593.43 447.64 595.36 448.42 597.3 449.21C597.9 449.48 598.49 449.74 599.09 450.01C599.88 450.55 600.67 451.09 601.46 451.63C601.54 445.08 601.62 438.54 601.69 431.99C601.51 429.77 601.33 427.56 601.15 425.34C600.9 423.42 600.66 421.49 600.42 419.57C599.08 412.05 597.74 404.54 596.39 397.02C595.72 386.2 586.18 359.5 580.1 350.34C578.5 347.23 576.9 344.12 575.29 341.02C573.74 338.43 572.19 335.84 570.64 333.25C568.78 330.38 566.92 327.51 565.06 324.65C564.54 323.57 564.01 322.49 563.48 321.41C562.69 321.09 561.9 320.76 561.11 320.43C561.18 317.25 561.02 316.97 558.4 314.8C555.59 311.36 552.78 307.92 549.97 304.48C547.01 297.91 533.98 286.28 528.12 281.28C509.72 265.57 489.57 250.38 467.12 240.93C466.96 241.1 466.8 241.27 466.64 241.44C466.1 240.71 465.55 239.98 465 239.26C465.01 237.04 465.02 234.82 465.03 232.61C464.84 228.13 464.65 223.66 464.46 219.18C461.41 212.45 452.43 214.52 451.84 221.69C451.1 230.75 451.87 240.14 451.87 249.22C451.85 267.58 451.78 285.94 451.82 304.29C451.91 346.07 451.83 387.84 451.84 429.62C451.85 450.18 450.78 471.04 451.89 491.57ZM466.07 243.21C466.7 244.25 467.34 245.28 467.97 246.31C469.93 253.73 474.05 260.94 476.76 268.16C479.9 276.49 481.93 285.28 485.13 293.55C485.5 295.07 485.86 296.6 486.22 298.12C487.81 307.8 490.23 317.34 491.6 327.08C492.65 334.48 492.7 342 493.7 349.39C493.72 353.5 493.74 357.62 493.76 361.73C493.7 365.21 493.64 368.69 493.58 372.18C493.36 374.71 493.14 377.24 492.92 379.77C492.56 383.25 492.19 386.73 491.82 390.21C491.34 392.84 490.86 395.47 490.38 398.09C490.38 398 490.38 397.9 490.38 397.81C490.28 398.76 490.18 399.71 490.07 400.66C488.43 408 486.79 415.34 485.14 422.68C484.85 423.57 484.56 424.45 484.27 425.34C483.92 426.62 483.57 427.9 483.22 429.18C481.48 433.92 479.74 438.65 478 443.38C477.77 444.24 477.53 445.1 477.29 445.96C477.03 446.66 476.76 447.37 476.49 448.07C475.93 449.35 475.36 450.64 474.8 451.93C473.93 453.83 473.06 455.72 472.19 457.62C471.09 460.33 469.98 463.04 468.87 465.75C467.63 467.46 466.39 469.17 465.15 470.88C465.08 469.31 465.01 467.74 464.95 466.17C464.97 457.62 465 449.08 465.03 440.53C465.01 430.41 464.99 420.28 464.97 410.15C464.97 409.2 464.96 408.25 464.95 407.3C464.97 391.8 465 376.29 465.03 360.78C465.01 352.55 464.99 344.33 464.98 336.1C464.97 332.93 464.96 329.77 464.95 326.6C464.98 320.59 465 314.58 465.03 308.56C465.03 303.82 465.03 299.07 465.03 294.32C465.03 280.4 465.04 266.47 465.04 252.55C465.02 250.02 464.99 247.48 464.97 244.95C465.34 244.37 465.7 243.79 466.07 243.21ZM974.11 457.47C976.29 454.13 975.25 439.53 974.86 434.84C974.86 429.77 974.86 424.71 974.85 419.65C974.85 387.68 974.86 355.72 974.86 323.75C974.85 323.44 974.85 323.12 974.85 322.81C975.57 314.2 975.05 305.34 975.04 296.7C975.04 293.31 975.88 288.41 973.99 285.9C965.64 285.93 957.3 285.96 948.95 285.99C948.95 343.09 948.95 400.19 948.95 457.29C957.34 457.35 965.73 457.41 974.11 457.47ZM368.24 433.08C355 450.28 341.77 467.48 328.53 484.68C329.33 484.79 330.04 485.36 330.85 485.39C333.32 485.47 346.05 479.29 349.57 478.13C363.07 473.68 376.85 471.23 390.95 469.86C392.92 469.82 394.89 469.78 396.86 469.75C397.81 469.75 398.76 469.75 399.71 469.75C401.98 469.79 404.25 469.83 406.52 469.86C418.62 471.09 429.53 473.97 441.01 477.8C442.74 472 441.77 465.15 441.78 459.05C441.78 448.94 442.64 438.48 441.62 428.43C441.57 396.07 441.51 363.71 441.46 331.35C441.45 324.7 441.45 318.06 441.45 311.41C441.3 303.24 441.16 295.07 441.01 286.9C435.94 298.24 432.35 310.35 427.73 321.9C420.56 339.84 412.41 357.45 403.33 374.5C396.28 387.75 388.78 400.75 380.68 413.39C377 419.14 370.23 426.87 368.24 433.08ZM667.92 294.46C658.66 294.46 649.4 294.46 640.13 294.46C663.64 348.88 687.14 403.3 710.65 457.72C719.19 457.72 727.74 457.72 736.28 457.72C759.9 403.3 783.52 348.89 807.14 294.47C798.08 294.47 789.02 294.47 779.95 294.47C761.28 337.38 742.61 380.28 723.94 423.18C705.27 380.28 686.59 337.37 667.92 294.46ZM848.79 404.24C851.32 404.24 853.85 404.24 856.38 404.24C878.81 404.15 901.23 404.07 923.65 403.98C925.1 397.18 924.51 389.66 923.24 382.85C920.34 367.33 912.84 353.64 899.96 344.24C867.48 320.54 816.86 334.1 802.43 371.86C793.06 396.37 799.2 426.62 819.5 443.73C838.17 459.46 866.43 463.21 889.4 456.1C899.46 452.98 910.66 447.1 916.73 438.16C911.96 433.04 907.2 427.92 902.43 422.8C899.86 423.99 897.95 426.33 895.65 428.12C891.21 431.57 885.93 434.23 880.47 435.59C861.62 440.28 838.94 435.2 828.69 417.45C826.43 413.53 824.43 408.84 824.58 404.34C832.65 404.31 840.72 404.27 848.79 404.24ZM1112.88 457.64C1114.11 438.6 1112.75 419.3 1113.05 400.21C1113.29 385.42 1114.27 369.07 1107 355.62C1093.25 330.17 1053.76 329.22 1029.56 336.84C1021.54 339.37 1010.38 342.85 1005.2 349.86C1008.6 355.83 1012.01 361.8 1015.41 367.77C1022.09 364.73 1027.55 359.79 1034.77 357.42C1052.86 351.48 1080.74 351.98 1086.35 374.44C1087.19 377.79 1087.37 381.16 1086.62 384.49C1081.24 384.64 1075.86 384.58 1070.48 384.53C1046.68 384.3 1007.84 383.05 1001.69 413.48C1000.87 417.54 1000.53 421.68 1000.89 425.82C1003.67 458.39 1046.58 465.2 1071.35 455.59C1078.48 452.82 1083.27 447.82 1089.08 443.29C1089.08 448.07 1089.08 452.86 1089.08 457.64C1097.01 457.64 1104.95 457.64 1112.88 457.64ZM869.67 386.09C869.52 385.87 869.36 385.65 869.2 385.42C864.14 385.42 859.07 385.41 854.01 385.41C853.85 385.63 853.69 385.85 853.53 386.08C843.88 385.97 834.23 385.87 824.58 385.77C824.39 378.64 828.23 371.5 832.96 366.3C848.77 348.93 879.28 349.68 892.93 369.33C896.24 374.1 898.88 379.91 898.63 385.76C888.98 385.87 879.33 385.98 869.67 386.09ZM1087.27 404.46C1087.27 408.69 1087.27 412.93 1087.27 417.16C1083.72 434.55 1063.34 441.51 1047.69 439.71C1039.21 438.74 1029.56 435.01 1027.3 425.79C1021.21 400.97 1053.49 402.58 1068.58 402.66C1071.77 402.68 1084.15 401.98 1086.33 403C1087.06 403.34 1086.9 403.88 1087.27 404.46ZM708.87 497.02C712.28 492.25 705.14 490.32 701.15 490.03C692.09 489.39 683.95 495.17 683.49 504.62C683.07 513.34 689.6 520.51 698.3 521.03C702.42 521.28 709.13 520.2 710.65 515.78C707.29 512.04 705.71 516.22 701.52 516.91C695.35 517.93 689.08 513.74 688.21 507.47C687.13 499.67 693.13 493.25 701.03 494.08C704.01 494.39 706.13 496.78 708.87 497.02ZM723.19 502.25C722.97 502.41 722.76 502.56 722.54 502.72C722.55 506.84 722.57 510.95 722.58 515.06C722.79 515.22 722.99 515.38 723.2 515.54C723.22 516.96 723.23 518.39 723.25 519.81C724.65 519.81 726.05 519.81 727.45 519.81C727.55 517.22 727.64 514.62 727.74 512.03C728.21 511.83 728.69 511.62 729.16 511.41C731.06 511.41 732.96 511.4 734.86 511.4C740.93 510.88 738.94 522.49 747.44 519.81C745.39 516.65 743.34 513.48 741.28 510.32C748.08 505.77 750.65 495.14 741.43 491.4C736.22 489.29 729.42 490.19 723.94 490.38C723.69 494.34 723.44 498.29 723.19 502.25ZM764.22 520.23C764.52 520.09 764.82 519.95 765.12 519.81C765.07 514.27 765.03 508.73 764.98 503.2C765.77 501.24 765.04 501.72 766.66 502.08C769.06 506.04 773.18 515.32 777.11 517.05C780.59 511.3 784.07 505.55 787.55 499.8C788.71 504.4 788.3 509.32 788.38 514.11C788.4 515.45 787.87 518.27 788.53 519.45C789.03 520.35 789.61 520.07 790.4 520.52C791.33 520.14 791.87 520.64 792.53 519.64C793.6 518.04 792.75 507.51 792.64 505.1C792.58 500.19 792.52 495.28 792.46 490.38C792.25 490.34 792.03 490.3 791.82 490.27C790.71 490.48 789.61 490.69 788.5 490.91C784.38 497.43 780.27 503.94 776.16 510.46C773.36 505.76 770.65 501 767.83 496.31C766.89 494.74 765.71 491.54 764.06 490.64C762.94 490.03 762.14 490.44 760.97 490.5C760.81 500.27 760.66 510.04 760.51 519.81C761.75 519.95 762.98 520.09 764.22 520.23ZM846.88 491.33C843.49 489.01 830.97 490.18 826.33 490.38C825.01 497.08 825.84 504.41 825.83 511.27C825.83 515.18 824.9 517.8 827.43 520.61C828.54 520.19 828.18 520.98 829.21 520.3C830.54 519.43 830.17 510.82 831.22 508.3C833.47 508.33 843.04 509 844.35 507.96C845.26 507.24 844.83 506.5 845.14 505.57C841.28 503.12 834.86 504.96 830.27 503.83C830.16 500.5 829.67 497.09 831.22 494.27C833.82 494.13 844.84 494.89 846.21 493.73C847.06 493 846.62 492.24 846.88 491.33ZM869.33 490.21C848.73 493.55 854.79 525.14 876.21 520.71C896.06 516.6 890.24 486.82 869.33 490.21ZM919.08 510.32C925.73 505.57 928.32 495.08 918.98 491.39C913.73 489.32 906.94 490.06 901.43 490.38C900.35 497.15 900.93 504.39 900.92 511.27C900.92 514.87 900.2 517.9 902.43 520.52C907.28 518.88 904.23 515.78 906.23 511.19C908.76 511.19 911.29 511.19 913.82 511.19C918.23 514.94 918.61 521.74 925.19 519.81C923.15 516.65 921.12 513.48 919.08 510.32ZM975.54 493.44C974.42 490.87 970.58 490.27 967.94 490.06C961.83 489.58 953.83 492.15 954.53 499.72C955.43 509.55 970.03 504.66 972.51 513.17C968.08 521.35 961.1 515.2 955.3 514.11C953.15 518.61 957.31 519.71 961.22 520.54C966.42 521.64 974.92 521.15 976.65 514.82C980.07 502.36 962.9 506.29 958.97 498.92C960.1 494.03 964.59 493.16 969.21 494.27C970.59 494.6 972.97 496.25 974.35 495.52C975.11 495.12 975.17 494.09 975.54 493.44ZM999.27 490.33C994.62 500.16 989.97 509.99 985.32 519.81C991.73 521.79 990.28 516.76 993.58 512.99C998.62 512.99 1003.66 512.99 1008.7 512.99C1011.25 517.3 1010.52 520.48 1016.36 520.51C1015.83 514.88 1008.89 501.94 1006.07 496.36C1004.21 492.65 1003.79 490.23 999.27 490.33ZM1030.6 490.16C1026.42 491.1 1027.78 494.19 1027.82 497.97C1027.9 505.23 1027.47 512.57 1027.83 519.81C1032.31 521.13 1037.26 520.61 1042 520.61C1043.39 520.61 1046.35 521.17 1047.51 520.26C1048.43 519.55 1048 518.84 1048.32 517.91C1044.84 515.13 1037.15 516.71 1032.5 516.48C1031.58 510.49 1032.11 504.06 1032.15 497.97C1032.17 494.92 1032.8 492.04 1030.6 490.16ZM1059.37 490.45C1059.37 500.24 1059.37 510.02 1059.37 519.81C1064.32 521.22 1070.03 520.56 1075.23 520.54C1076.62 520.54 1079.54 521.07 1080.72 520.17C1081.59 519.5 1081.19 518.8 1081.5 517.91C1077.39 514.76 1069.09 517.22 1063.91 516.01C1063.91 513.17 1063.91 510.32 1063.91 507.47C1066.59 507.12 1076.34 507.93 1077.96 506.85C1079 506.16 1078.52 505.58 1078.95 504.62C1075.11 501.89 1068.74 503.68 1064.02 502.72C1064.02 499.87 1064.02 497.02 1064.02 494.18C1067.01 494.18 1077.41 495.2 1079.44 494.11C1080.39 493.59 1080.18 493.06 1080.73 492.28C1080.3 491.52 1080.5 490.88 1079.65 490.4C1078.43 489.72 1075.64 490.26 1074.28 490.26C1069.3 490.25 1064.33 490.21 1059.37 490.45ZM1113.2 493.46C1112.22 490.75 1108.29 490.18 1105.61 490C1099.67 489.6 1091.46 492.11 1092.27 499.64C1093.31 509.39 1107.11 504.76 1110.44 512.22C1109.12 518.05 1103.02 517.87 1098.14 516.27C1096.78 515.83 1094.85 514.18 1093.42 514.54C1092.69 514.72 1092.51 515.54 1092.08 516.01C1094.39 523.46 1113.02 522.92 1114.7 514.1C1117.19 501.02 1098.73 507.27 1096.97 497.97C1098.9 493.91 1102.84 493.29 1107.07 494.18C1108.32 494.45 1110.81 496.09 1112.04 495.46C1112.87 495.03 1112.8 494.15 1113.2 493.46ZM737.71 507.15C734.72 507.17 731.74 507.2 728.75 507.22C726.65 504.09 726.83 497.31 728.66 494.18C732.36 494.23 736.9 493.47 740.15 495.53C745.56 498.97 742.54 505.39 737.71 507.15ZM870.42 494.14C885.47 491.74 888.99 514.57 874.2 516.89C859.72 519.17 856.05 496.42 870.42 494.14ZM913.35 507.25C911.01 507.23 908.68 507.22 906.34 507.2C904.11 505.62 905.43 496.76 906.23 494.25C909.96 494.09 915.17 493.44 918.32 495.86C924.38 500.49 919.06 506.57 913.35 507.25ZM1005.44 509.17C1002.91 509.18 1000.38 509.19 997.85 509.2C995.51 508.89 996.36 509.07 995.47 507.3C997.01 503.77 998.34 498.26 1001.17 495.99C1002.99 499.82 1004.81 503.64 1006.63 507.47C1006.6 508.92 1006.82 508.42 1005.44 509.17Z" fill="#FDFDFB" fill-rule="evenodd" stroke="#FDFDFB" stroke-width="0.25" stroke-linejoin="round"/>
  <path d="M464.46 219.18C464.44 223.66 464.43 228.13 464.42 232.61C464.39 234.67 464.36 236.72 464.33 238.78C464.55 238.94 464.78 239.1 465 239.26C465.55 239.98 466.1 240.71 466.64 241.44C466.8 241.27 466.96 241.1 467.12 240.93C467.12 241.48 467.12 242.03 467.12 242.58C466.77 242.79 466.42 243 466.07 243.21C465.7 243.79 465.34 244.37 464.97 244.95C464.74 245.11 464.51 245.27 464.27 245.43C464.33 247.8 464.39 250.17 464.44 252.55C464.44 266.47 464.43 280.4 464.43 294.32C464.43 299.07 464.43 303.82 464.43 308.56C464.35 314.42 464.27 320.27 464.2 326.13C464.45 326.29 464.7 326.44 464.95 326.6C464.96 329.77 464.97 332.93 464.98 336.1C464.79 344.33 464.61 352.55 464.42 360.78C463.35 371.51 464.21 382.73 464.19 393.54C464.18 397.67 463.16 403.71 464.95 407.3C464.96 408.25 464.97 409.2 464.97 410.15C464.79 420.28 464.61 430.41 464.42 440.53C464.6 449.08 464.77 457.62 464.95 466.17C465.01 467.74 465.08 469.31 465.15 470.88C464.79 471.05 464.42 471.22 464.06 471.39C464.6 472.5 465.15 473.61 465.69 474.71C466.33 474.08 466.96 473.45 467.59 472.81C468.12 472.95 468.64 473.09 469.17 473.22C467.78 474.67 466.39 476.12 465.01 477.56C464.76 477.72 464.52 477.88 464.28 478.04C464.27 481.52 464.25 485 464.24 488.48C464.49 488.64 464.74 488.8 464.99 488.95C465.05 489.22 465.1 489.48 465.16 489.74C460.74 490.35 456.31 490.96 451.89 491.57C450.78 471.04 451.85 450.18 451.84 429.62C451.83 387.84 451.91 346.07 451.82 304.29C451.78 285.94 451.85 267.58 451.87 249.22C451.87 240.14 451.1 230.75 451.84 221.69C452.43 214.52 461.41 212.45 464.46 219.18ZM973.99 285.9C974.28 298.2 974.57 310.5 974.85 322.81C974.85 323.12 974.85 323.44 974.86 323.75C974.86 355.72 974.85 387.68 974.85 419.65C974.86 424.71 974.86 429.77 974.86 434.84C974.61 442.38 974.36 449.93 974.11 457.47C965.73 457.41 957.34 457.35 948.95 457.29C948.95 400.19 948.95 343.09 948.95 285.99C957.3 285.96 965.64 285.93 973.99 285.9ZM667.92 294.46C686.59 337.37 705.27 380.28 723.94 423.18C742.61 380.28 761.28 337.38 779.95 294.47C789.02 294.47 798.08 294.47 807.14 294.47C783.52 348.89 759.9 403.3 736.28 457.72C727.74 457.72 719.19 457.72 710.65 457.72C687.14 403.3 663.64 348.88 640.13 294.46C649.4 294.46 658.66 294.46 667.92 294.46ZM856.38 404.24C856.22 404.01 856.07 403.78 855.91 403.55C853.69 403.55 851.48 403.55 849.26 403.55C849.1 403.78 848.95 404.01 848.79 404.24C840.72 404.27 832.65 404.31 824.58 404.34C824.43 408.84 826.43 413.53 828.69 417.45C838.94 435.2 861.62 440.28 880.47 435.59C885.93 434.23 891.21 431.57 895.65 428.12C897.95 426.33 899.86 423.99 902.43 422.8C907.2 427.92 911.96 433.04 916.73 438.16C910.66 447.1 899.46 452.98 889.4 456.1C866.43 463.21 838.17 459.46 819.5 443.73C799.2 426.62 793.06 396.37 802.43 371.86C816.86 334.1 867.48 320.54 899.96 344.24C912.84 353.64 920.34 367.33 923.24 382.85C924.51 389.66 925.1 397.18 923.65 403.98C901.23 404.07 878.81 404.15 856.38 404.24ZM1112.88 457.64C1104.95 457.64 1097.01 457.64 1089.08 457.64C1089.08 452.86 1089.08 448.07 1089.08 443.29C1083.27 447.82 1078.48 452.82 1071.35 455.59C1046.58 465.2 1003.67 458.39 1000.89 425.82C1000.53 421.68 1000.87 417.54 1001.69 413.48C1007.84 383.05 1046.68 384.3 1070.48 384.53C1075.86 384.58 1081.24 384.64 1086.62 384.49C1087.37 381.16 1087.19 377.79 1086.35 374.44C1080.74 351.98 1052.86 351.48 1034.77 357.42C1027.55 359.79 1022.09 364.73 1015.41 367.77C1012.01 361.8 1008.6 355.83 1005.2 349.86C1010.38 342.85 1021.54 339.37 1029.56 336.84C1053.76 329.22 1093.25 330.17 1107 355.62C1114.27 369.07 1113.29 385.42 1113.05 400.21C1112.75 419.3 1114.11 438.6 1112.88 457.64ZM853.53 386.08C858.91 386.08 864.29 386.09 869.67 386.09C879.33 385.98 888.98 385.87 898.63 385.76C898.88 379.91 896.24 374.1 892.93 369.33C879.28 349.68 848.77 348.93 832.96 366.3C828.23 371.5 824.39 378.64 824.58 385.77C834.23 385.87 843.88 385.97 853.53 386.08ZM493.58 372.18C493.94 372.33 494.29 372.49 494.65 372.65C494.49 375.66 494.33 378.66 494.18 381.67C493.76 381.04 493.34 380.4 492.92 379.77C493.14 377.24 493.36 374.71 493.58 372.18ZM491.82 390.21C492.13 390.37 492.44 390.53 492.75 390.69C492.75 392.9 492.75 395.12 492.75 397.34C492.28 398.13 491.8 398.92 491.33 399.71C491.01 399.08 490.7 398.44 490.38 397.81C490.38 397.9 490.38 398 490.38 398.09C490.86 395.47 491.34 392.84 491.82 390.21ZM490.07 400.66C491.83 404.06 489.82 406.44 489.13 409.86C488.21 414.47 487.65 419.47 486.11 423.92C485.79 423.51 485.46 423.09 485.14 422.68C486.79 415.34 488.43 408 490.07 400.66ZM1087.27 417.16C1087.47 413.08 1087.68 409.01 1087.89 404.93C1087.68 404.77 1087.48 404.61 1087.27 404.46C1086.9 403.88 1087.06 403.34 1086.33 403C1084.15 401.98 1071.77 402.68 1068.58 402.66C1053.49 402.58 1021.21 400.97 1027.3 425.79C1029.56 435.01 1039.21 438.74 1047.69 439.71C1063.34 441.51 1083.72 434.55 1087.27 417.16ZM600.42 419.57C600.66 421.49 600.9 423.42 601.15 425.34C600.93 426.93 600.72 428.51 600.51 430.09C600.48 426.58 600.45 423.07 600.42 419.57ZM484.27 425.34C484.57 425.5 484.86 425.66 485.16 425.82C485.16 426.77 485.16 427.72 485.16 428.67C484.68 429.09 484.21 429.51 483.73 429.93C483.56 429.68 483.39 429.43 483.22 429.18C483.57 427.9 483.92 426.62 484.27 425.34ZM601.69 431.99C601.62 438.54 601.54 445.08 601.46 451.63C600.67 451.09 599.88 450.55 599.09 450.01C599.72 449.54 600.35 449.07 600.99 448.6C601.22 443.07 601.46 437.53 601.69 431.99ZM540.22 442.58C538.96 442.84 537.69 443.09 536.43 443.35C536.58 442.73 536.74 442.11 536.9 441.48C537.85 441.48 538.8 441.48 539.75 441.48C539.91 441.85 540.07 442.22 540.22 442.58ZM478 443.38C478.49 443.54 478.97 443.7 479.46 443.86C478.99 444.96 478.51 446.07 478.04 447.18C477.79 446.77 477.54 446.37 477.29 445.96C477.53 445.1 477.77 444.24 478 443.38ZM531.68 444.39C530.73 444.65 529.78 444.9 528.83 445.16C528.51 444.72 528.2 444.29 527.88 443.86C528.99 443.7 530.1 443.54 531.2 443.38C531.36 443.72 531.52 444.06 531.68 444.39ZM525.03 446.14C523.98 446.52 522.93 446.91 521.88 447.29C521.35 447.1 520.82 446.9 520.29 446.71C520.76 446.23 521.24 445.76 521.71 445.28C522.66 445.28 523.61 445.28 524.56 445.28C524.72 445.57 524.87 445.85 525.03 446.14ZM597.3 449.21C595.36 448.42 593.43 447.64 591.49 446.85C591.65 446.64 591.81 446.44 591.97 446.23C594.02 447.02 596.08 447.81 598.14 448.6C597.86 448.81 597.58 449.01 597.3 449.21ZM519.34 447.99C518.29 448.39 517.24 448.79 516.19 449.19C515.66 449 515.12 448.8 514.59 448.6C515.06 448.13 515.54 447.65 516.01 447.18C516.96 447.18 517.91 447.18 518.86 447.18C519.02 447.45 519.18 447.72 519.34 447.99ZM476.49 448.07C476.85 448.25 477.21 448.43 477.56 448.6C477.09 449.71 476.61 450.82 476.14 451.93C475.69 451.93 475.25 451.93 474.8 451.93C475.36 450.64 475.93 449.35 476.49 448.07ZM513.51 449.95C511.97 450.56 510.43 451.17 508.89 451.78C508.89 451.35 508.89 450.93 508.89 450.5C509.68 450.03 510.48 449.55 511.27 449.08C512.01 449.37 512.76 449.66 513.51 449.95ZM472.19 457.62C472.72 457.78 473.24 457.94 473.76 458.1C472.81 459.68 471.87 461.26 470.92 462.85C470.47 464.91 470.71 465.08 468.87 465.75C469.98 463.04 471.09 460.33 472.19 457.62ZM487.06 462.27C482.71 464.85 478.36 467.42 474.01 470C474.4 469.04 474.8 468.08 475.19 467.12C479.36 466.22 482.94 462.76 486.58 460.47C486.74 461.07 486.9 461.67 487.06 462.27ZM708.87 497.02C706.13 496.78 704.01 494.39 701.03 494.08C693.13 493.25 687.13 499.67 688.21 507.47C689.08 513.74 695.35 517.93 701.52 516.91C705.71 516.22 707.29 512.04 710.65 515.78C709.13 520.2 702.42 521.28 698.3 521.03C689.6 520.51 683.07 513.34 683.49 504.62C683.95 495.17 692.09 489.39 701.15 490.03C705.14 490.32 712.28 492.25 708.87 497.02ZM734.86 511.4C734.7 511.21 734.54 511.03 734.38 510.84C732.8 510.85 731.22 510.85 729.63 510.86C729.48 511.04 729.32 511.23 729.16 511.41C728.69 511.62 728.21 511.83 727.74 512.03C727.64 514.62 727.55 517.22 727.45 519.81C726.05 519.81 724.65 519.81 723.25 519.81C723.23 518.39 723.22 516.96 723.2 515.54C723.2 511.11 723.19 506.68 723.19 502.25C723.44 498.29 723.69 494.34 723.94 490.38C729.42 490.19 736.22 489.29 741.43 491.4C750.65 495.14 748.08 505.77 741.28 510.32C743.34 513.48 745.39 516.65 747.44 519.81C738.94 522.49 740.93 510.88 734.86 511.4ZM791.82 490.27C791.87 495.05 791.92 499.84 791.97 504.62C792.19 504.78 792.42 504.94 792.64 505.1C792.75 507.51 793.6 518.04 792.53 519.64C791.87 520.64 791.33 520.14 790.4 520.52C789.61 520.07 789.03 520.35 788.53 519.45C787.87 518.27 788.4 515.45 788.38 514.11C788.3 509.32 788.71 504.4 787.55 499.8C784.07 505.55 780.59 511.3 777.11 517.05C773.18 515.32 769.06 506.04 766.66 502.08C765.04 501.72 765.77 501.24 764.98 503.2C764.73 503.35 764.48 503.51 764.23 503.67C764.23 509.19 764.22 514.71 764.22 520.23C762.98 520.09 761.75 519.95 760.51 519.81C760.66 510.04 760.81 500.27 760.97 490.5C762.14 490.44 762.94 490.03 764.06 490.64C765.71 491.54 766.89 494.74 767.83 496.31C770.65 501 773.36 505.76 776.16 510.46C780.27 503.94 784.38 497.43 788.5 490.91C789.61 490.69 790.71 490.48 791.82 490.27ZM846.88 491.33C846.62 492.24 847.06 493 846.21 493.73C844.84 494.89 833.82 494.13 831.22 494.27C829.67 497.09 830.16 500.5 830.27 503.83C834.86 504.96 841.28 503.12 845.14 505.57C844.83 506.5 845.26 507.24 844.35 507.96C843.04 509 833.47 508.33 831.22 508.3C830.17 510.82 830.54 519.43 829.21 520.3C828.18 520.98 828.54 520.19 827.43 520.61C824.9 517.8 825.83 515.18 825.83 511.27C825.84 504.41 825.01 497.08 826.33 490.38C830.97 490.18 843.49 489.01 846.88 491.33ZM869.33 490.21C890.24 486.82 896.06 516.6 876.21 520.71C854.79 525.14 848.73 493.55 869.33 490.21ZM919.08 510.32C921.12 513.48 923.15 516.65 925.19 519.81C918.61 521.74 918.23 514.94 913.82 511.19C911.29 511.19 908.76 511.19 906.23 511.19C904.23 515.78 907.28 518.88 902.43 520.52C900.2 517.9 900.92 514.87 900.92 511.27C900.93 504.39 900.35 497.15 901.43 490.38C906.94 490.06 913.73 489.32 918.98 491.39C928.32 495.08 925.73 505.57 919.08 510.32ZM975.54 493.44C975.17 494.09 975.11 495.12 974.35 495.52C972.97 496.25 970.59 494.6 969.21 494.27C964.59 493.16 960.1 494.03 958.97 498.92C962.9 506.29 980.07 502.36 976.65 514.82C974.92 521.15 966.42 521.64 961.22 520.54C957.31 519.71 953.15 518.61 955.3 514.11C961.1 515.2 968.08 521.35 972.51 513.17C970.03 504.66 955.43 509.55 954.53 499.72C953.83 492.15 961.83 489.58 967.94 490.06C970.58 490.27 974.42 490.87 975.54 493.44ZM999.27 490.33C1003.79 490.23 1004.21 492.65 1006.07 496.36C1008.89 501.94 1015.83 514.88 1016.36 520.51C1010.52 520.48 1011.25 517.3 1008.7 512.99C1003.66 512.99 998.62 512.99 993.58 512.99C990.28 516.76 991.73 521.79 985.32 519.81C989.97 509.99 994.62 500.16 999.27 490.33ZM1030.6 490.16C1032.8 492.04 1032.17 494.92 1032.15 497.97C1032.11 504.06 1031.58 510.49 1032.5 516.48C1037.15 516.71 1044.84 515.13 1048.32 517.91C1048 518.84 1048.43 519.55 1047.51 520.26C1046.35 521.17 1043.39 520.61 1042 520.61C1037.26 520.61 1032.31 521.13 1027.83 519.81C1027.47 512.57 1027.9 505.23 1027.82 497.97C1027.78 494.19 1026.42 491.1 1030.6 490.16ZM1059.37 490.45C1064.33 490.21 1069.3 490.25 1074.28 490.26C1075.64 490.26 1078.43 489.72 1079.65 490.4C1080.5 490.88 1080.3 491.52 1080.73 492.28C1080.18 493.06 1080.39 493.59 1079.44 494.11C1077.41 495.2 1067.01 494.18 1064.02 494.18C1064.02 497.02 1064.02 499.87 1064.02 502.72C1068.74 503.68 1075.11 501.89 1078.95 504.62C1078.52 505.58 1079 506.16 1077.96 506.85C1076.34 507.93 1066.59 507.12 1063.91 507.47C1063.91 510.32 1063.91 513.17 1063.91 516.01C1069.09 517.22 1077.39 514.76 1081.5 517.91C1081.19 518.8 1081.59 519.5 1080.72 520.17C1079.54 521.07 1076.62 520.54 1075.23 520.54C1070.03 520.56 1064.32 521.22 1059.37 519.81C1059.37 510.02 1059.37 500.24 1059.37 490.45ZM1113.2 493.46C1112.8 494.15 1112.87 495.03 1112.04 495.46C1110.81 496.09 1108.32 494.45 1107.07 494.18C1102.84 493.29 1098.9 493.91 1096.97 497.97C1098.73 507.27 1117.19 501.02 1114.7 514.1C1113.02 522.92 1094.39 523.46 1092.08 516.01C1092.51 515.54 1092.69 514.72 1093.42 514.54C1094.85 514.18 1096.78 515.83 1098.14 516.27C1103.02 517.87 1109.12 518.05 1110.44 512.22C1107.11 504.76 1093.31 509.39 1092.27 499.64C1091.46 492.11 1099.67 489.6 1105.61 490C1108.29 490.18 1112.22 490.75 1113.2 493.46ZM728.75 507.22C731.34 508.07 735.08 508.37 737.71 507.15C742.54 505.39 745.56 498.97 740.15 495.53C736.9 493.47 732.36 494.23 728.66 494.18C726.83 497.31 726.65 504.09 728.75 507.22ZM870.42 494.14C856.05 496.42 859.72 519.17 874.2 516.89C888.99 514.57 885.47 491.74 870.42 494.14ZM906.34 507.2C908.52 507.44 910.7 507.69 912.87 507.93C913.03 507.7 913.19 507.48 913.35 507.25C919.06 506.57 924.38 500.49 918.32 495.86C915.17 493.44 909.96 494.09 906.23 494.25C905.43 496.76 904.11 505.62 906.34 507.2ZM997.85 509.2C998.01 509.42 998.16 509.64 998.32 509.86C1000.54 509.85 1002.75 509.85 1004.97 509.84C1005.13 509.62 1005.28 509.4 1005.44 509.17C1006.82 508.42 1006.6 508.92 1006.63 507.47C1004.81 503.64 1002.99 499.82 1001.17 495.99C998.34 498.26 997.01 503.77 995.47 507.3C996.36 509.07 995.51 508.89 997.85 509.2Z" fill="#194B74" fill-rule="evenodd" stroke="#194B74" stroke-width="0.25" stroke-linejoin="round"/>
  <path d="M467.12 240.93C489.57 250.38 509.72 265.57 528.12 281.28C533.98 286.28 547.01 297.91 549.97 304.48C549.57 305.05 549.17 305.62 548.77 306.19C553.01 308.41 553.5 314.17 558.4 314.8C561.02 316.97 561.18 317.25 561.11 320.43C561.9 320.76 562.69 321.09 563.48 321.41C564.01 322.49 564.54 323.57 565.06 324.65C565.17 325.93 565.28 327.22 565.38 328.5C566.71 329.58 566.75 329.49 567.28 331.35C567.81 331.98 568.33 332.62 568.85 333.25C569.44 334.25 570.02 335.25 570.61 336.26C567.45 335.89 565.6 337.06 563.48 334.68C563.51 335.03 563.59 336.71 563.29 336.88C562.6 337.25 560.79 336.5 559.99 336.46C556.81 336.29 548.84 336.95 546.42 336.05C544.53 335.35 544.94 334.31 542.6 334.68C543.23 335.64 543.86 336.59 544.5 337.55C543.23 337.7 541.96 337.85 540.7 338C540.91 334.65 542.04 336.11 539.75 334.2C539.54 334.39 539.18 334.27 538.92 334.37C538.07 334.71 539.42 335.8 538.66 335.83C537.47 335.87 537.83 334.55 536.84 334.23C536.09 333.99 533.94 334.61 533.07 334.67C534.24 332.76 534.32 332.9 533.1 331.01C531.16 330.09 531.13 330.9 529.29 330.91C528.33 330.92 527.39 329.89 526.33 329.86C525.62 329.84 524.08 330.96 523.67 330.82C523.18 330.66 522.77 327.61 521.94 327.84C521.16 328.06 521.16 329.29 520.65 329.93C517.03 322.19 513.4 314.46 509.78 306.73C502.16 289.64 491.18 274 479.92 259.19C477.01 255.37 472.97 246.35 467.97 246.31C467.34 245.28 466.7 244.25 466.07 243.21C466.42 243 466.77 242.79 467.12 242.58C467.12 242.03 467.12 241.48 467.12 240.93ZM869.67 386.09C864.29 386.09 858.91 386.08 853.53 386.08C853.69 385.85 853.85 385.63 854.01 385.41C859.07 385.41 864.14 385.42 869.2 385.42C869.36 385.65 869.52 385.87 869.67 386.09ZM603.77 513.64C603.31 513.64 602.86 513.64 602.41 513.64C601.3 514.75 600.2 515.86 599.09 516.96C599.19 517.44 599.28 517.92 599.38 518.4C597.13 520.66 594.88 522.92 592.63 525.18C592.09 524.82 591.55 524.45 591.02 524.08C590.05 525.71 589.08 527.33 588.12 528.95C582.87 536.44 561.46 547.72 552.44 548.89C552.32 548.53 552.21 548.18 552.09 547.82C550.83 548.14 549.56 548.45 548.29 548.77C548.19 549.13 548.08 549.5 547.98 549.87C544.44 550.65 540.91 551.44 537.38 552.23C537.22 552.03 537.06 551.82 536.9 551.62C535 551.62 533.1 551.62 531.2 551.62C531.05 551.93 530.89 552.24 530.73 552.55C527.25 552.56 523.77 552.56 520.29 552.56C520.13 552.25 519.97 551.93 519.81 551.62C516.65 551.62 513.48 551.62 510.32 551.62C510.16 551.93 510 552.24 509.84 552.55C509.53 552.55 509.21 552.55 508.89 552.55C508.73 552.24 508.58 551.93 508.42 551.62C503.67 551.62 498.92 551.62 494.18 551.62C494.02 551.93 493.86 552.25 493.7 552.56C492.12 552.56 490.54 552.56 488.95 552.56C488.8 552.24 488.64 551.93 488.48 551.62C485 551.62 481.52 551.62 478.04 551.62C477.88 551.93 477.72 552.25 477.56 552.57C473.13 552.57 468.7 552.57 464.27 552.57C464.11 552.25 463.95 551.93 463.8 551.62C460.63 551.62 457.47 551.62 454.3 551.62C454.14 551.93 453.98 552.25 453.83 552.56C450.34 552.56 446.86 552.56 443.38 552.56C443.22 552.24 443.07 551.93 442.91 551.62C441.33 551.62 439.74 551.62 438.16 551.62C438 551.93 437.84 552.25 437.69 552.57C437.05 552.56 436.42 552.56 435.79 552.56C435.63 552.25 435.47 551.93 435.31 551.62C430.88 551.62 426.45 551.62 422.02 551.62C421.86 551.93 421.7 552.25 421.55 552.56C419.65 552.56 417.75 552.56 415.85 552.56C415.69 552.25 415.53 551.93 415.37 551.62C413.48 551.62 411.58 551.62 409.68 551.62C409.52 551.93 409.36 552.25 409.2 552.57C390.21 552.57 371.23 552.57 352.24 552.57C352.08 552.25 351.92 551.93 351.76 551.62C347.96 551.62 344.17 551.62 340.37 551.62C340.21 551.93 340.05 552.25 339.89 552.56C333.06 553.7 324.64 553.45 319.03 548.9C319.34 548.7 319.65 548.5 319.96 548.29C318.53 547.19 317.11 546.08 315.68 544.97C315.22 545.05 314.76 545.13 314.29 545.21C307.66 540.78 303.48 531.82 299.45 525.11C297.45 521.79 294.79 518.38 294.26 514.59C294.6 514.43 294.94 514.27 295.27 514.11C296.27 512.3 297.28 510.48 298.28 508.66C298.57 508.61 298.86 508.56 299.15 508.51C301.81 508.63 304.48 508.76 307.14 508.89C307.3 508.62 307.46 508.34 307.61 508.06C318.69 507.11 329.77 506.16 340.84 505.21C341 505.49 341.16 505.77 341.32 506.04C343.22 506.04 345.12 506.04 347.02 506.04C347.81 505.47 348.6 504.89 349.39 504.31C349.71 504.3 350.02 504.29 350.34 504.28C350.5 504.55 350.65 504.82 350.81 505.1C353.03 505.1 355.24 505.1 357.46 505.1C358.25 504.52 359.04 503.94 359.83 503.36C360.47 503.33 361.1 503.3 361.73 503.27C361.89 503.56 362.05 503.85 362.21 504.15C364.11 504.15 366 504.15 367.9 504.15C368.69 503.56 369.49 502.97 370.28 502.38C389.9 500.05 409.52 497.73 429.14 495.41C429.3 495.79 429.46 496.17 429.62 496.55C430.57 496.55 431.51 496.55 432.46 496.55C433.1 496.23 433.73 495.92 434.36 495.6C434.47 495.28 434.59 494.96 434.7 494.63C437.91 494.19 441.13 493.75 444.34 493.32C446.24 493.29 448.13 493.26 450.03 493.23C449.7 493.01 449.38 492.79 449.05 492.57C450 492.24 450.94 491.9 451.89 491.57C456.31 490.96 460.74 490.35 465.16 489.74C477.84 487.92 490.52 486.1 503.2 484.28C503.35 484.57 503.51 484.87 503.67 485.16C504.62 485.16 505.57 485.16 506.52 485.16C506.99 484.56 507.47 483.97 507.94 483.38C508.26 483.35 508.58 483.33 508.89 483.3C509.05 483.6 509.21 483.91 509.37 484.21C510.32 484.21 511.27 484.21 512.22 484.21C512.69 483.61 513.17 483.01 513.64 482.41C522.76 479.48 532.74 478.68 542.12 476.84C559.29 473.48 576.54 469.75 593.6 465.79C604.2 463.33 614.62 460.11 625.2 457.52C629.03 456.59 632.67 455.27 636.59 455.32C641.37 460.18 635.15 467.39 632.28 472.28C624.69 485.2 615.1 503.93 603.77 513.64ZM723.19 502.25C723.19 506.68 723.2 511.11 723.2 515.54C722.99 515.38 722.79 515.22 722.58 515.06C722.57 510.95 722.55 506.84 722.54 502.72C722.76 502.56 722.97 502.41 723.19 502.25ZM734.86 511.4C732.96 511.4 731.06 511.41 729.16 511.41C729.32 511.23 729.48 511.04 729.63 510.86C731.22 510.85 732.8 510.85 734.38 510.84C734.54 511.03 734.7 511.21 734.86 511.4Z" fill="#74B1DB" fill-rule="evenodd" stroke="#74B1DB" stroke-width="0.25" stroke-linejoin="round"/>
  <path d="M464.46 219.18C464.65 223.66 464.84 228.13 465.03 232.61C464.83 232.61 464.62 232.61 464.42 232.61C464.43 228.13 464.44 223.66 464.46 219.18ZM467.97 246.31C472.97 246.35 477.01 255.37 479.92 259.19C491.18 274 502.16 289.64 509.78 306.73C509.37 307.5 508.97 308.27 508.56 309.04C506.39 305.41 509.26 309.44 503.27 309.99C502.73 314.58 500.32 316.18 506.33 315.68C504.49 316.36 502.66 317.05 500.82 317.73C503.57 320.12 502.18 320.5 503.67 322.64C505.11 323.08 506.73 321.68 508.63 322.05C511.31 322.58 513.14 326.57 515.11 321.38C523.91 338.93 528.73 359 531.49 378.37C532.26 383.73 532.68 389.16 533.23 394.54C533.41 396.28 532.96 399.42 533.88 400.93C534.45 401.87 536.89 402.84 537.85 403.6C539.95 401.32 542.63 400.76 544.5 404.26C545.69 399.85 545.45 402.21 547.41 403.22C547.93 403.49 549.53 402.9 550.12 403.12C550.74 403.36 550.65 404.27 551.56 403.85C552.25 403.52 552.68 402.32 553.04 401.69C554.3 403.15 553.37 404.48 554.22 404.99C556.52 406.36 558.17 402.78 559.69 407.2C560.41 406.45 561.53 404.83 562.69 404.76C563.81 404.69 563.83 405.6 564.73 405.89C566.06 406.32 567.81 405.26 568.89 406.7C570.65 409.05 566.07 407.98 568.23 408.84C571.94 408.56 571 408.1 570.13 405.29C572.34 406.1 572.13 406.62 572.98 409.01C573.96 408.22 573.27 408.3 574.09 407.42C575.04 406.41 575.75 407.12 576.76 407.05C579.36 406.85 579.72 407.1 580.57 409.82C582.54 409.12 586.09 407.92 586.27 410.91C589.45 410.5 592.63 410.09 595.81 409.68C597.65 406.02 596.12 403.13 595.36 399.23C595.7 398.5 596.05 397.76 596.39 397.02C597.74 404.54 599.08 412.05 600.42 419.57C600.45 423.07 600.48 426.58 600.51 430.09C600.72 428.51 600.93 426.93 601.15 425.34C601.33 427.56 601.51 429.77 601.69 431.99C601.46 437.53 601.22 443.07 600.99 448.6C600.35 449.07 599.72 449.54 599.09 450.01C598.49 449.74 597.9 449.48 597.3 449.21C597.58 449.01 597.86 448.81 598.14 448.6C596.08 447.81 594.02 447.02 591.97 446.23C591.81 446.44 591.65 446.64 591.49 446.85C582.19 444.19 573.24 441.8 563.48 441.4C555.64 441.08 547.96 442.49 540.22 442.58C540.07 442.22 539.91 441.85 539.75 441.48C538.8 441.48 537.85 441.48 536.9 441.48C536.74 442.11 536.58 442.73 536.43 443.35C534.84 443.7 533.26 444.04 531.68 444.39C531.52 444.06 531.36 443.72 531.2 443.38C530.1 443.54 528.99 443.7 527.88 443.86C528.2 444.29 528.51 444.72 528.83 445.16C527.56 445.48 526.3 445.81 525.03 446.14C524.87 445.85 524.72 445.57 524.56 445.28C523.61 445.28 522.66 445.28 521.71 445.28C521.24 445.76 520.76 446.23 520.29 446.71C520.82 446.9 521.35 447.1 521.88 447.29C521.03 447.52 520.18 447.76 519.34 447.99C519.18 447.72 519.02 447.45 518.86 447.18C517.91 447.18 516.96 447.18 516.01 447.18C515.54 447.65 515.06 448.13 514.59 448.6C515.12 448.8 515.66 449 516.19 449.19C515.3 449.45 514.4 449.7 513.51 449.95C512.76 449.66 512.01 449.37 511.27 449.08C510.48 449.55 509.68 450.03 508.89 450.5C508.89 450.93 508.89 451.35 508.89 451.78C501.61 455.27 494.33 458.77 487.06 462.27C486.9 461.67 486.74 461.07 486.58 460.47C482.94 462.76 479.36 466.22 475.19 467.12C474.8 468.08 474.4 469.04 474.01 470C472.4 471.08 470.78 472.15 469.17 473.22C468.64 473.09 468.12 472.95 467.59 472.81C466.96 473.45 466.33 474.08 465.69 474.71C465.15 473.61 464.6 472.5 464.06 471.39C464.42 471.22 464.79 471.05 465.15 470.88C466.39 469.17 467.63 467.46 468.87 465.75C470.71 465.08 470.47 464.91 470.92 462.85C471.87 461.26 472.81 459.68 473.76 458.1C473.24 457.94 472.72 457.78 472.19 457.62C473.06 455.72 473.93 453.83 474.8 451.93C475.25 451.93 475.69 451.93 476.14 451.93C476.61 450.82 477.09 449.71 477.56 448.6C477.21 448.43 476.85 448.25 476.49 448.07C476.76 447.37 477.03 446.66 477.29 445.96C477.54 446.37 477.79 446.77 478.04 447.18C478.51 446.07 478.99 444.96 479.46 443.86C478.97 443.7 478.49 443.54 478 443.38C479.74 438.65 481.48 433.92 483.22 429.18C483.39 429.43 483.56 429.68 483.73 429.93C484.21 429.51 484.68 429.09 485.16 428.67C485.16 427.72 485.16 426.77 485.16 425.82C484.86 425.66 484.57 425.5 484.27 425.34C484.56 424.45 484.85 423.57 485.14 422.68C485.46 423.09 485.79 423.51 486.11 423.92C487.65 419.47 488.21 414.47 489.13 409.86C489.82 406.44 491.83 404.06 490.07 400.66C490.18 399.71 490.28 398.76 490.38 397.81C490.7 398.44 491.01 399.08 491.33 399.71C491.8 398.92 492.28 398.13 492.75 397.34C492.75 395.12 492.75 392.9 492.75 390.69C492.44 390.53 492.13 390.37 491.82 390.21C492.19 386.73 492.56 383.25 492.92 379.77C493.34 380.4 493.76 381.04 494.18 381.67C494.33 378.66 494.49 375.66 494.65 372.65C494.29 372.49 493.94 372.33 493.58 372.18C493.64 368.69 493.7 365.21 493.76 361.73C493.99 361.57 494.22 361.42 494.45 361.26C494.44 357.46 494.44 353.66 494.44 349.86C494.19 349.71 493.95 349.55 493.7 349.39C492.7 342 492.65 334.48 491.6 327.08C490.23 317.34 487.81 307.8 486.22 298.12C486.82 297.96 487.41 297.8 488.01 297.65C486.67 295.82 486.88 296.1 487.06 293.85C486.42 293.75 485.77 293.65 485.13 293.55C481.93 285.28 479.9 276.49 476.76 268.16C474.05 260.94 469.93 253.73 467.97 246.31ZM464.44 252.55C464.64 252.55 464.84 252.55 465.04 252.55C465.04 266.47 465.03 280.4 465.03 294.32C464.83 294.32 464.63 294.32 464.43 294.32C464.43 280.4 464.44 266.47 464.44 252.55ZM973.99 285.9C975.88 288.41 975.04 293.31 975.04 296.7C975.05 305.34 975.57 314.2 974.85 322.81C974.57 310.5 974.28 298.2 973.99 285.9ZM464.43 308.56C464.63 308.56 464.83 308.56 465.03 308.56C465 314.58 464.98 320.59 464.95 326.6C464.7 326.44 464.45 326.29 464.2 326.13C464.27 320.27 464.35 314.42 464.43 308.56ZM974.86 323.75C974.86 355.72 974.85 387.68 974.85 419.65C974.85 387.68 974.86 355.72 974.86 323.75ZM568.85 333.25C569.45 333.25 570.04 333.25 570.64 333.25C572.19 335.84 573.74 338.43 575.29 341.02C574.84 340.96 574.38 340.9 573.93 340.84C573.14 339.42 572.35 338 571.55 336.57C571.24 336.47 570.92 336.36 570.61 336.26C570.02 335.25 569.44 334.25 568.85 333.25ZM575.29 341.02C576.9 344.12 578.5 347.23 580.1 350.34C579.47 350.18 578.83 350.02 578.2 349.86C577.25 347.96 576.3 346.07 575.35 344.17C575.33 343.12 575.31 342.07 575.29 341.02ZM464.42 360.78C464.62 360.78 464.83 360.78 465.03 360.78C465 376.29 464.97 391.8 464.95 407.3C463.16 403.71 464.18 397.67 464.19 393.54C464.21 382.73 463.35 371.51 464.42 360.78ZM1087.27 404.46C1087.48 404.61 1087.68 404.77 1087.89 404.93C1087.68 409.01 1087.47 413.08 1087.27 417.16C1087.27 412.93 1087.27 408.69 1087.27 404.46ZM974.86 434.84C975.25 439.53 976.29 454.13 974.11 457.47C974.36 449.93 974.61 442.38 974.86 434.84ZM464.42 440.53C464.63 440.53 464.83 440.53 465.03 440.53C465 449.08 464.97 457.62 464.95 466.17C464.77 457.62 464.6 449.08 464.42 440.53ZM465.01 477.56C465 481.36 465 485.16 464.99 488.95C464.74 488.8 464.49 488.64 464.24 488.48C464.25 485 464.27 481.52 464.28 478.04C464.52 477.88 464.76 477.72 465.01 477.56ZM791.82 490.27C792.03 490.3 792.25 490.34 792.46 490.38C792.52 495.28 792.58 500.19 792.64 505.1C792.42 504.94 792.19 504.78 791.97 504.62C791.92 499.84 791.87 495.05 791.82 490.27Z" fill="#4075A9" fill-rule="evenodd" stroke="#4075A9" stroke-width="0.25" stroke-linejoin="round"/>
  <path d="M441.45 311.41C441.45 318.06 441.45 324.7 441.46 331.35C439.84 328.72 439.84 314.05 441.45 311.41ZM441.62 428.43C442.64 438.48 441.78 448.94 441.78 459.05C441.77 465.15 442.74 472 441.01 477.8C429.53 473.97 418.62 471.09 406.52 469.86C404.41 469.59 402.3 469.31 400.18 469.04C400.03 469.27 399.87 469.51 399.71 469.75C398.76 469.75 397.81 469.75 396.86 469.75C396.7 469.5 396.54 469.25 396.39 469.01C394.57 469.29 392.76 469.57 390.95 469.86C376.85 471.23 363.07 473.68 349.57 478.13C346.05 479.29 333.32 485.47 330.85 485.39C330.04 485.36 329.33 484.79 328.53 484.68C341.77 467.48 355 450.28 368.24 433.08C370.27 433.55 370.61 432.19 372.67 431.96C375.63 431.63 380.96 431.73 380.25 435.46C383.49 436.07 385.6 437.97 388.79 437.17C391.32 438.86 393.85 440.55 396.39 442.24C399.98 437.59 402.56 431.91 405.35 426.75C413.45 411.81 420.36 395.42 425.13 379.09C427.3 371.63 429.1 363.96 431.51 356.65C432.64 364.34 430.49 359.08 436.26 362.13C435.98 362.84 434.95 364.07 435.23 364.84C435.46 365.5 436.82 365.82 437.29 366.41C439.03 368.58 438.87 372.01 439.11 374.59C439.43 366.51 439.74 358.42 440.06 350.34C441.54 357.75 440.39 366.04 440.13 373.6C439.75 384.64 440.56 395.78 440.62 406.83C440.65 412.72 439.51 423.53 441.62 428.43Z" fill="#DB7B4C" fill-rule="evenodd" stroke="#DB7B4C" stroke-width="0.25" stroke-linejoin="round"/>
  <path d="M464.42 232.61C464.62 232.61 464.83 232.61 465.03 232.61C465.02 234.82 465.01 237.04 465 239.26C464.78 239.1 464.55 238.94 464.33 238.78C464.36 236.72 464.39 234.67 464.42 232.61ZM464.97 244.95C464.99 247.48 465.02 250.02 465.04 252.55C464.84 252.55 464.64 252.55 464.44 252.55C464.39 250.17 464.33 247.8 464.27 245.43C464.51 245.27 464.74 245.11 464.97 244.95ZM485.13 293.55C485.77 293.65 486.42 293.75 487.06 293.85C486.88 296.1 486.67 295.82 488.01 297.65C487.41 297.8 486.82 297.96 486.22 298.12C485.86 296.6 485.5 295.07 485.13 293.55ZM464.43 294.32C464.63 294.32 464.83 294.32 465.03 294.32C465.03 299.07 465.03 303.82 465.03 308.56C464.83 308.56 464.63 308.56 464.43 308.56C464.43 303.82 464.43 299.07 464.43 294.32ZM549.97 304.48C552.78 307.92 555.59 311.36 558.4 314.8C553.5 314.17 553.01 308.41 548.77 306.19C549.17 305.62 549.57 305.05 549.97 304.48ZM509.78 306.73C513.4 314.46 517.03 322.19 520.65 329.93C521.16 329.29 521.16 328.06 521.94 327.84C522.77 327.61 523.18 330.66 523.67 330.82C524.08 330.96 525.62 329.84 526.33 329.86C527.39 329.89 528.33 330.92 529.29 330.91C531.13 330.9 531.16 330.09 533.1 331.01C534.32 332.9 534.24 332.76 533.07 334.67C533.94 334.61 536.09 333.99 536.84 334.23C537.83 334.55 537.47 335.87 538.66 335.83C539.42 335.8 538.07 334.71 538.92 334.37C539.18 334.27 539.54 334.39 539.75 334.2C542.04 336.11 540.91 334.65 540.7 338C541.96 337.85 543.23 337.7 544.5 337.55C543.86 336.59 543.23 335.64 542.6 334.68C544.94 334.31 544.53 335.35 546.42 336.05C548.84 336.95 556.81 336.29 559.99 336.46C560.79 336.5 562.6 337.25 563.29 336.88C563.59 336.71 563.51 335.03 563.48 334.68C565.6 337.06 567.45 335.89 570.61 336.26C570.92 336.36 571.24 336.47 571.55 336.57C572.35 338 573.14 339.42 573.93 340.84C574.38 340.9 574.84 340.96 575.29 341.02C575.31 342.07 575.33 343.12 575.35 344.17C576.3 346.07 577.25 347.96 578.2 349.86C578.83 350.02 579.47 350.18 580.1 350.34C586.18 359.5 595.72 386.2 596.39 397.02C596.05 397.76 595.7 398.5 595.36 399.23C596.12 403.13 597.65 406.02 595.81 409.68C592.63 410.09 589.45 410.5 586.27 410.91C586.09 407.92 582.54 409.12 580.57 409.82C579.72 407.1 579.36 406.85 576.76 407.05C575.75 407.12 575.04 406.41 574.09 407.42C573.27 408.3 573.96 408.22 572.98 409.01C572.13 406.62 572.34 406.1 570.13 405.29C571 408.1 571.94 408.56 568.23 408.84C566.07 407.98 570.65 409.05 568.89 406.7C567.81 405.26 566.06 406.32 564.73 405.89C563.83 405.6 563.81 404.69 562.69 404.76C561.53 404.83 560.41 406.45 559.69 407.2C558.17 402.78 556.52 406.36 554.22 404.99C553.37 404.48 554.3 403.15 553.04 401.69C552.68 402.32 552.25 403.52 551.56 403.85C550.65 404.27 550.74 403.36 550.12 403.12C549.53 402.9 547.93 403.49 547.41 403.22C545.45 402.21 545.69 399.85 544.5 404.26C542.63 400.76 539.95 401.32 537.85 403.6C536.89 402.84 534.45 401.87 533.88 400.93C532.96 399.42 533.41 396.28 533.23 394.54C532.68 389.16 532.26 383.73 531.49 378.37C528.73 359 523.91 338.93 515.11 321.38C513.14 326.57 511.31 322.58 508.63 322.05C506.73 321.68 505.11 323.08 503.67 322.64C502.18 320.5 503.57 320.12 500.82 317.73C502.66 317.05 504.49 316.36 506.33 315.68C500.32 316.18 502.73 314.58 503.27 309.99C509.26 309.44 506.39 305.41 508.56 309.04C508.97 308.27 509.37 307.5 509.78 306.73ZM565.06 324.65C566.92 327.51 568.78 330.38 570.64 333.25C570.04 333.25 569.45 333.25 568.85 333.25C568.33 332.62 567.81 331.98 567.28 331.35C566.75 329.49 566.71 329.58 565.38 328.5C565.28 327.22 565.17 325.93 565.06 324.65ZM464.98 336.1C464.99 344.33 465.01 352.55 465.03 360.78C464.83 360.78 464.62 360.78 464.42 360.78C464.61 352.55 464.79 344.33 464.98 336.1ZM493.7 349.39C493.95 349.55 494.19 349.71 494.44 349.86C494.44 353.66 494.44 357.46 494.45 361.26C494.22 361.42 493.99 361.57 493.76 361.73C493.74 357.62 493.72 353.5 493.7 349.39ZM856.38 404.24C853.85 404.24 851.32 404.24 848.79 404.24C848.95 404.01 849.1 403.78 849.26 403.55C851.48 403.55 853.69 403.55 855.91 403.55C856.07 403.78 856.22 404.01 856.38 404.24ZM464.97 410.15C464.99 420.28 465.01 430.41 465.03 440.53C464.83 440.53 464.63 440.53 464.42 440.53C464.61 430.41 464.79 420.28 464.97 410.15ZM513.64 482.41C513.17 483.01 512.69 483.61 512.22 484.21C511.27 484.21 510.32 484.21 509.37 484.21C509.21 483.91 509.05 483.6 508.89 483.3C510.48 483 512.06 482.7 513.64 482.41ZM507.94 483.38C507.47 483.97 506.99 484.56 506.52 485.16C505.57 485.16 504.62 485.16 503.67 485.16C503.51 484.87 503.35 484.57 503.2 484.28C504.78 483.98 506.36 483.68 507.94 483.38ZM449.05 492.57C449.38 492.79 449.7 493.01 450.03 493.23C448.13 493.26 446.24 493.29 444.34 493.32C445.91 493.07 447.48 492.82 449.05 492.57ZM434.7 494.63C434.59 494.96 434.47 495.28 434.36 495.6C433.73 495.92 433.1 496.23 432.46 496.55C431.51 496.55 430.57 496.55 429.62 496.55C429.46 496.17 429.3 495.79 429.14 495.41C430.99 495.15 432.85 494.89 434.7 494.63ZM370.28 502.38C369.49 502.97 368.69 503.56 367.9 504.15C366 504.15 364.11 504.15 362.21 504.15C362.05 503.85 361.89 503.56 361.73 503.27C364.58 502.97 367.43 502.67 370.28 502.38ZM359.83 503.36C359.04 503.94 358.25 504.52 357.46 505.1C355.24 505.1 353.03 505.1 350.81 505.1C350.65 504.82 350.5 504.55 350.34 504.28C353.5 503.97 356.67 503.67 359.83 503.36ZM764.98 503.2C765.03 508.73 765.07 514.27 765.12 519.81C764.82 519.95 764.52 520.09 764.22 520.23C764.22 514.71 764.23 509.19 764.23 503.67C764.48 503.51 764.73 503.35 764.98 503.2ZM349.39 504.31C348.6 504.89 347.81 505.47 347.02 506.04C345.12 506.04 343.22 506.04 341.32 506.04C341.16 505.77 341 505.49 340.84 505.21C343.69 504.91 346.54 504.61 349.39 504.31ZM728.75 507.22C731.74 507.2 734.72 507.17 737.71 507.15C735.08 508.37 731.34 508.07 728.75 507.22ZM906.34 507.2C908.68 507.22 911.01 507.23 913.35 507.25C913.19 507.48 913.03 507.7 912.87 507.93C910.7 507.69 908.52 507.44 906.34 507.2ZM298.28 508.66C297.28 510.48 296.27 512.3 295.27 514.11C294.94 514.27 294.6 514.43 294.26 514.59C293.82 511.65 294.85 508.73 298.28 508.66ZM307.61 508.06C307.46 508.34 307.3 508.62 307.14 508.89C304.48 508.76 301.81 508.63 299.15 508.51C301.97 508.36 304.79 508.21 307.61 508.06ZM997.85 509.2C1000.38 509.19 1002.91 509.18 1005.44 509.17C1005.28 509.4 1005.13 509.62 1004.97 509.84C1002.75 509.85 1000.54 509.85 998.32 509.86C998.16 509.64 998.01 509.42 997.85 509.2ZM603.77 513.64C602.3 515.23 600.84 516.81 599.38 518.4C599.28 517.92 599.19 517.44 599.09 516.96C600.2 515.86 601.3 514.75 602.41 513.64C602.86 513.64 603.31 513.64 603.77 513.64ZM592.63 525.18C591.12 526.44 589.62 527.7 588.12 528.95C589.08 527.33 590.05 525.71 591.02 524.08C591.55 524.45 592.09 524.82 592.63 525.18ZM314.29 545.21C314.76 545.13 315.22 545.05 315.68 544.97C317.11 546.08 318.53 547.19 319.96 548.29C319.65 548.5 319.34 548.7 319.03 548.9C317.45 547.67 315.87 546.44 314.29 545.21ZM552.44 548.89C550.95 549.21 549.46 549.54 547.98 549.87C548.08 549.5 548.19 549.13 548.29 548.77C549.56 548.45 550.83 548.14 552.09 547.82C552.21 548.18 552.32 548.53 552.44 548.89ZM352.24 552.57C348.12 552.57 344.01 552.56 339.89 552.56C340.05 552.25 340.21 551.93 340.37 551.62C344.17 551.62 347.96 551.62 351.76 551.62C351.92 551.93 352.08 552.25 352.24 552.57ZM415.85 552.56C413.63 552.56 411.42 552.56 409.2 552.57C409.36 552.25 409.52 551.93 409.68 551.62C411.58 551.62 413.48 551.62 415.37 551.62C415.53 551.93 415.69 552.25 415.85 552.56ZM435.79 552.56C431.04 552.56 426.29 552.56 421.55 552.56C421.7 552.25 421.86 551.93 422.02 551.62C426.45 551.62 430.88 551.62 435.31 551.62C435.47 551.93 435.63 552.25 435.79 552.56ZM443.38 552.56C441.48 552.56 439.58 552.56 437.69 552.57C437.84 552.25 438 551.93 438.16 551.62C439.74 551.62 441.33 551.62 442.91 551.62C443.07 551.93 443.22 552.24 443.38 552.56ZM464.27 552.57C460.79 552.57 457.31 552.56 453.83 552.56C453.98 552.25 454.14 551.93 454.3 551.62C457.47 551.62 460.63 551.62 463.8 551.62C463.95 551.93 464.11 552.25 464.27 552.57ZM488.95 552.56C485.16 552.56 481.36 552.56 477.56 552.57C477.72 552.25 477.88 551.93 478.04 551.62C481.52 551.62 485 551.62 488.48 551.62C488.64 551.93 488.8 552.24 488.95 552.56ZM508.89 552.55C503.83 552.56 498.77 552.56 493.7 552.56C493.86 552.25 494.02 551.93 494.18 551.62C498.92 551.62 503.67 551.62 508.42 551.62C508.58 551.93 508.73 552.24 508.89 552.55ZM520.29 552.56C516.8 552.56 513.32 552.55 509.84 552.55C510 552.24 510.16 551.93 510.32 551.62C513.48 551.62 516.65 551.62 519.81 551.62C519.97 551.93 520.13 552.25 520.29 552.56ZM537.38 552.23C535.16 552.34 532.94 552.45 530.73 552.55C530.89 552.24 531.05 551.93 531.2 551.62C533.1 551.62 535 551.62 536.9 551.62C537.06 551.82 537.22 552.03 537.38 552.23Z" fill="#538EBD" fill-rule="evenodd" stroke="#538EBD" stroke-width="0.25" stroke-linejoin="round"/>
  <path d="M441.45 311.41C439.84 314.05 439.84 328.72 441.46 331.35C441.51 363.71 441.57 396.07 441.62 428.43C439.51 423.53 440.65 412.72 440.62 406.83C440.56 395.78 439.75 384.64 440.13 373.6C440.39 366.04 441.54 357.75 440.06 350.34C439.74 358.42 439.43 366.51 439.11 374.59C438.87 372.01 439.03 368.58 437.29 366.41C436.82 365.82 435.46 365.5 435.23 364.84C434.95 364.07 435.98 362.84 436.26 362.13C430.49 359.08 432.64 364.34 431.51 356.65C429.1 363.96 427.3 371.63 425.13 379.09C420.36 395.42 413.45 411.81 405.35 426.75C402.56 431.91 399.98 437.59 396.39 442.24C393.85 440.55 391.32 438.86 388.79 437.17C385.6 437.97 383.49 436.07 380.25 435.46C380.96 431.73 375.63 431.63 372.67 431.96C370.61 432.19 370.27 433.55 368.24 433.08C370.23 426.87 377 419.14 380.68 413.39C388.78 400.75 396.28 387.75 403.33 374.5C412.41 357.45 420.56 339.84 427.73 321.9C432.35 310.35 435.94 298.24 441.01 286.9C441.16 295.07 441.3 303.24 441.45 311.41ZM396.86 469.75C394.89 469.78 392.92 469.82 390.95 469.86C392.76 469.57 394.57 469.29 396.39 469.01C396.54 469.25 396.7 469.5 396.86 469.75ZM406.52 469.86C404.25 469.83 401.98 469.79 399.71 469.75C399.87 469.51 400.03 469.27 400.18 469.04C402.3 469.31 404.41 469.59 406.52 469.86Z" fill="#E99E6B" fill-rule="evenodd" stroke="#E99E6B" stroke-width="0.25" stroke-linejoin="round"/>
</svg>